<svg width="465" height="359" viewBox="0 0 465 359" fill="none" xmlns="http://www.w3.org/2000/svg">
<g filter="url(#filter0_d_18711_594)">
<path d="M156.3 56.1L153.5 61H150.8L149.9 62.4H152.7L146.6 72.8C145.3 75 146.2 77 148.7 77C150.5 77 152.4 75.7 154.3 73.9C154.3 77.7 159.6 78.4 162.9 74.4H163.6C165.4 74.4 168.2 73.3 169.8 71.5C169.6 71.1 169.1 70.6 168.7 70.5L168.5 70.7C167.1 72.2 165.5 72.9 163.9 72.9L166.7 68.1C168.5 65 166.8 62 164 62C161.7 62 159.9 62.9 158.1 65.9L156.6 68.5L155.4 70.6L155.2 70.8C153 73.3 150.9 75.3 149.6 75.3C148.9 75.3 148.6 74.8 149.3 73.7L155.8 62.5H158.3L159 61H156.5L159.3 56.1H156.3ZM163.8 63.9C164.8 64 165.2 65.2 164.2 66.9L162 70.6H161.9C160.9 70.6 160.1 71.4 160.1 72.4C160.1 72.8 160.2 73.1 160.4 73.4V73.5C159 75.9 155.5 75.5 157.3 72.4L159.6 68.5L161.1 66.1C162 64.5 163.1 63.9 163.8 63.9ZM185.8 56.1L183 61H180.3L179.4 62.4H182.2L176 72.8C174.7 75 175.6 77 178.1 77C179.3 77 180.6 76.4 182 75.4L181.2 76.7H184.2L188.8 68.8C193.4 63 195.5 63.8 194.2 66L190.3 72.7C189 74.9 189.9 76.9 192.4 76.9C194.2 76.9 196.2 75.5 198.1 73.7C198.2 75.6 199.8 76.9 202.2 76.9C205.6 76.9 209 74.3 211.5 71.4C211.3 71 210.8 70.5 210.4 70.4L210.2 70.6C208 73.1 205.2 75.1 203.1 75.1C201.2 75.1 200.1 74 201.5 71.5L201.8 71C203.7 71.8 207.4 71.4 209.7 67.6L210.1 66.9C211.7 64.1 210.2 62.1 207.7 62.1C205.3 62.1 203.3 63.4 202 65.5L199.1 70.5L198.9 70.7C196.7 73.2 194.6 75.2 193.3 75.2C192.6 75.2 192.3 74.7 192.9 73.6L197.3 66.1C198.6 63.8 197.4 62.2 195.7 62.2C194.4 62.2 193 62.9 191.5 64.5L196.3 56.2H193.3L184.9 70.6L184.7 70.8C182.5 73.3 180.4 75.3 179.1 75.3C178.4 75.3 178.1 74.8 178.8 73.7L185.3 62.5H187.8L188.7 61.1H186.2L189 56.2L185.8 56.1ZM207.1 64.3C208.1 64.2 208.6 65.2 207.6 66.9L207.2 67.6C205.8 70 203.8 70 202.7 69.6L204.6 66.2C205.3 65 206.3 64.4 207.1 64.3ZM251.4 58.9C249.7 60.4 249.5 62.1 250.6 63.5L250.9 63.8C249.6 65.7 247.8 68.2 245.8 70.5L245.6 70.7C244.2 72.2 242.6 72.9 241 72.9L243.8 68.1C245.6 65 243.9 62 241.1 62C238.8 62 237 62.9 235.2 65.9L233.7 68.5L232.5 70.6L232.3 70.8C229.8 73.6 227.7 75.5 225.3 76.5L232.1 65.1H230.3C230.3 63.9 229 62.2 227.1 62.2C225.5 62.2 223.2 63.5 221.9 65.6L217.7 72.8C216.4 75 217.3 77 219.8 77C220.6 77 221.7 76.6 222.7 76L221.9 77.4C217.8 78.6 215.3 80.3 215.3 82.5C215.3 85.4 219.7 86 221.9 82.3L224.2 78.4C226.6 77.7 229 76.3 231.4 73.9C231.4 77.7 236.7 78.5 240 74.4H240.7C242.5 74.4 245.3 73.3 246.9 71.5C248.3 69.8 249.5 68.3 251.9 65.1L252.3 65.6C252.7 66.1 252.8 66.7 252.5 67.3L249.3 72.8C248 75 248.9 77 251.4 77C252.9 77 254.6 76 256.2 74.6C256.1 76 257.1 77 258.8 77C259.6 77 260.7 76.6 261.7 76L260.9 77.4C256.8 78.6 254.3 80.3 254.3 82.5C254.3 85.4 258.7 86 260.9 82.3L263.2 78.4C265.7 77.6 268.1 76.2 270.6 73.8C270.7 75.7 272.3 77 274.7 77C277.2 77 279.6 75.6 281.7 73.8C281.6 77.7 287 78.5 290.3 74.4H291C291.9 74.4 293.2 74.1 294.4 73.5C293.6 75.6 294.3 77 296.1 77C297.8 77 299.6 75.5 301.1 74.1C300.8 75.7 301.8 77 303.7 77C306.2 77 309.1 74.4 311.6 71.5C313.3 69.5 314.8 67.5 315.9 66.1C314.7 69.2 315.3 74.8 312.5 74.8C311.5 74.8 311.1 73.7 311.1 73.7L309.2 74.7C309.2 74.7 309.8 77.1 312.5 77.1C312.8 77.1 313.1 77.1 313.3 77H313.4C316.5 76.6 319.5 74.2 321.8 71.6C321.6 71.1 321.1 70.7 320.7 70.6L320.5 70.8C319.4 72 318.2 73.1 316.9 74C317.9 71.2 317.7 66.8 319.5 63L317.2 61.8C316 63.5 313.2 67.4 310.5 70.5L310.3 70.7C308.1 73.2 306 75.2 304.7 75.2C304 75.2 303.7 74.7 304.4 73.6L310.8 62.4H307.8L302.4 71.7C300.1 73.8 298.3 74.9 297.8 74.7C297 74.4 297.8 73.3 298.2 72.6L304.1 62.4H301.1L296.4 70.5L296.2 70.7C294.8 72.2 293.2 72.9 291.6 72.9L294.4 68.1C296.2 65 294.5 62 291.7 62C289.4 62 287.6 62.9 285.8 65.9L284.3 68.5L283.1 70.6L282.9 70.8C280.7 73.3 277.9 75.3 275.8 75.3C273.9 75.3 272.8 74.2 274.2 71.7L274.5 71.2C276.4 72 280.1 71.6 282.4 67.8L282.8 67.1C284.4 64.3 282.9 62.3 280.4 62.3C278 62.3 276 63.6 274.7 65.7L271.8 70.7L271.6 70.9C269.1 73.7 267 75.6 264.6 76.6L271.4 65.2H269.6C269.6 64 268.3 62.3 266.4 62.3C264.8 62.3 262.5 63.6 261.2 65.7L258.3 70.6L258.1 70.8C255.9 73.3 253.8 75.3 252.5 75.3C251.8 75.3 251.5 74.8 252.2 73.7L255.2 68.5C256.2 66.7 255.8 65.6 254.8 64.5L253.1 62.5C252.7 62 252.7 61.4 253.3 60.8L251.4 58.9ZM241.1 63.9C242.1 64 242.6 65.2 241.5 66.9L239.3 70.6H239.2C238.2 70.6 237.4 71.4 237.4 72.4C237.4 72.8 237.5 73.1 237.7 73.4V73.5C236.3 75.9 232.8 75.5 234.6 72.4L236.9 68.5L238.4 66.1C239.3 64.5 240.3 63.9 241.1 63.9ZM291.3 63.9C292.3 64 292.8 65.2 291.7 66.9L289.5 70.6H289.4C288.4 70.6 287.6 71.4 287.6 72.4C287.6 72.8 287.7 73.1 287.9 73.4V73.5C286.5 75.9 283 75.5 284.8 72.4L287.1 68.5L288.6 66.1C289.4 64.5 290.5 63.9 291.3 63.9ZM279.6 64.3C280.6 64.2 281.1 65.2 280.1 66.9L279.7 67.6C278.2 70 276.3 70 275.2 69.6L277.1 66.2C277.8 65 278.8 64.4 279.6 64.3ZM227.2 64.5C228.2 64.5 228.9 65.4 228 66.9L225.7 70.9C223.9 73.8 222 75.2 220.8 75.2C220.1 75.2 219.8 74.7 220.5 73.6L224.7 66.3C225.4 65.1 226.4 64.5 227.2 64.5ZM266.1 64.5C267.1 64.5 267.8 65.4 266.9 66.9L264.6 70.9C262.8 73.8 260.9 75.2 259.7 75.2C259 75.2 258.7 74.7 259.4 73.6L263.6 66.3C264.3 65.1 265.3 64.5 266.1 64.5ZM220.8 79.4L219.4 81.8C218.8 82.9 217.7 82.7 217.7 81.9C217.7 81.2 218.5 80.3 220.8 79.4ZM259.7 79.4L258.3 81.8C257.7 82.9 256.6 82.7 256.6 81.9C256.7 81.2 257.4 80.3 259.7 79.4ZM105 67.8H133.9V69.7H105V67.8ZM332.1 67.8H361V69.7H332.1V67.8Z" fill="#766458"/>
<path d="M326.7 37.4V45.1H305.9V0.400002H326.7V8H313.5V18.8H324V26.5H313.5V37.4H326.7ZM293.9 0.400002H301.5V45.1H293.9V23.1L290.9 34.5H283.5L280.5 23.1V45.1H272.9V0.400002H280.5L287.3 22L293.9 0.400002ZM262 8H256.5V37.3H262V8ZM265 0.400002C267.5 0.400002 269.7 2.5 269.7 5.1V40.4C269.7 43 267.5 45.1 265 45.1H253.6C251 45.1 248.9 42.9 248.9 40.4V5.1C248.9 2.5 251 0.400002 253.6 0.400002H265ZM237 28.6L244.7 26.8V40.4C244.7 43 242.5 45.1 240 45.1H228.6C226 45.1 223.9 42.9 223.9 40.4V5.1C223.9 2.5 226 0.400002 228.6 0.400002H240C242.5 0.400002 244.7 2.5 244.7 5.1V14.2L237 16V8H231.5V37.3H237V28.6ZM220.2 37.4V45.1H202V0.400002H209.6V37.4H220.2ZM198.8 37.4V45.1H178V0.400002H198.8V8H185.6V18.8H196.1V26.5H185.6V37.4H198.8ZM166.6 0.400002H174.3L173 45.1H158.5L156.5 26.6L154.5 45.1H140L139 0.400002H146.6L147.2 37.4H148L152.8 0.400002H160.4L165.3 37.4H166.1L166.6 0.400002Z" fill="#81B3D3"/>
<path d="M384.7 213.9L410.1 139.9H435.3L461 213.9H440.8L437.1 200.5H408.5L404.7 213.9H384.7ZM420.4 161.8L412.9 186.3H433L425.5 161.8C425.1 160.6 424.7 159.4 424.3 158.2C424 156.9 423.7 155.7 423.5 154.4C423.3 153.9 423.2 153.5 423.2 153.1C423.1 152.6 423 152.2 423 151.8C422.9 152.2 422.8 152.6 422.7 153.1C422.6 153.5 422.5 153.9 422.5 154.4C422.4 154.6 422.4 154.7 422.4 154.9C422.4 155 422.4 155.1 422.3 155.2C422.1 156.3 421.8 157.5 421.5 158.6C421 159.6 420.7 160.7 420.4 161.8ZM302.7 213.9V139.9H322.2L350.1 177.9C350.8 179 351.5 180.2 352.1 181.4C352.8 182.6 353.5 183.8 354.1 185L355.5 188C356 189 356.4 190 356.9 190.9C356.8 190.1 356.7 189.3 356.6 188.5C356.5 187.7 356.4 186.9 356.4 186.1C356.2 184.5 356.1 182.9 356.1 181.3C356 179.6 356 178 356 176.3V140H375.4V214H356L327.9 175.8C327.1 174.9 326.4 173.8 325.7 172.5C325 171.2 324.3 169.8 323.7 168.4C323.3 167.4 322.8 166.5 322.3 165.5C321.9 164.6 321.6 163.6 321.1 162.7C321.5 165.1 321.8 167.5 322 170C322.2 172.5 322.3 175 322.3 177.4V213.9H302.7ZM214.7 159C218.3 152.4 223.2 147.4 229.6 143.9C236 140.4 242.6 138.7 249.5 138.7C250.4 138.7 251.4 138.7 252.3 138.8C253.3 138.9 254.3 139 255.2 139C258.1 139.4 260.9 140.1 263.7 141.1C266.6 142.1 269.3 143.4 271.8 145C277.3 148.6 281.6 153.3 284.6 159.3C287.6 165.2 289.1 171.3 289.1 177.8C289.1 178.6 289.1 179.4 289 180.2C289 181 288.9 181.7 288.8 182.5C288.6 184.2 288.3 185.8 287.9 187.4C287.5 189 287 190.5 286.4 192C283.1 199.5 278.1 205.4 271.2 209.5C264.3 213.6 257.1 215.7 249.5 215.7C249 215.7 248.4 215.7 247.9 215.6H246.4C243.7 215.4 241.1 214.9 238.5 214.2C235.9 213.5 233.4 212.5 231.1 211.3C224.6 207.9 219.5 203.1 215.8 196.8C212.1 190.5 210.2 183.9 210.2 177.1C210.2 176.1 210.2 175.1 210.3 174.1C210.4 173.1 210.5 172 210.8 171C211.2 169 211.7 166.9 212.4 165C212.8 162.8 213.7 160.9 214.7 159ZM267.5 185.6C267.7 184.8 267.9 184 268.1 183.2C268.3 182.3 268.5 181.5 268.6 180.6C268.7 180.1 268.7 179.5 268.7 179C268.8 178.5 268.8 178 268.8 177.5C268.8 177 268.8 176.6 268.7 176.1V174.7C268.3 171.4 267.3 168.2 265.7 165.1C264.1 162 261.8 159.6 259 157.9C258.2 157.5 257.5 157.2 256.7 156.9C255.9 156.6 255.2 156.3 254.4 156.1C253.6 155.9 252.9 155.8 252.1 155.8C251.3 155.6 250.6 155.6 249.8 155.6C245.9 155.6 242.2 156.8 238.9 159.3C235.6 161.8 233.2 165.1 231.9 169.2L231.7 169.7V170.2C231.5 170.9 231.3 171.7 231.1 172.4C230.9 173.1 230.8 173.8 230.6 174.6L230.4 176.2V178.6C230.4 178.8 230.4 179.1 230.5 179.4C230.7 183.5 232 187.4 234.2 191.1C236.5 194.7 239.7 197.1 243.7 198.3L245.1 198.8C245.6 198.9 246.1 199 246.6 199L248 199.2H249.4C253.5 199.2 257.2 198 260.4 195.6C263.7 193 266.1 189.7 267.5 185.6ZM185.4 207C181.8 209.5 177.8 211.2 173.6 212.1C169.4 213 165 213.6 160.7 213.8C159.5 213.9 158.2 213.9 157 213.9H133.2V139.9H158.3C159.5 139.9 160.7 139.9 161.9 140C166.1 140.2 170.2 140.8 174.2 141.7C178.3 142.6 182.1 144.4 185.5 146.8C189.8 149.8 193.2 153.8 195.6 158.8C198 163.8 199.4 168.9 199.7 174.1C199.8 174.6 199.8 175 199.8 175.5V178.4C199.6 183.9 198.3 189.2 195.9 194.3C193.5 199.4 189.9 203.7 185.4 207ZM153 197.3C153.2 197.3 153.5 197.3 153.7 197.4H154.5C154.8 197.4 155.1 197.4 155.3 197.5H158.4C159.3 197.4 160.1 197.3 160.8 197.3C162.8 197.1 164.8 196.8 166.7 196.3C168.6 195.8 170.4 194.9 171.9 193.9C174.4 192.1 176.2 189.7 177.4 186.7C178.6 183.6 179.3 180.4 179.3 177.1V176.2C179.3 175.9 179.3 175.6 179.2 175.3C179 172.4 178.3 169.5 177.1 166.8C175.9 164 174.2 161.8 172 160.2C170.4 158.9 168.5 158 166.5 157.5C164.5 157 162.5 156.8 160.5 156.7H153V197.3ZM73.1 213.9V139.9H118.5V156H92.9V169H116.9V184.8H92.9V197.3H118.4V213.9H73.1ZM13.7 190.1C13.8 190.2 13.8 190.3 13.8 190.3C13.9 190.3 14 190.3 14 190.4C16.1 192.7 18.5 194.9 21.1 196.9C23.7001 198.8 26.8001 199.9 30.2001 200C30.3001 200 30.4 200 30.4 200.1H30.7001C30.8001 200.1 30.9 200.1 30.9 200.2H32.2001C32.6 200.1 32.9001 200 33.2001 200C34.4001 199.8 35.6 199.3 36.7001 198.6C37.9001 197.9 38.8001 197.1 39.4001 196L39.6 195.5L39.8 195C40 194.5 40.1 194 40.1 193.5C40.2 193 40.2001 192.6 40.2001 192.2C40.2001 190.1 39.3001 188.4 37.4001 187C35.7001 185.6 33.7001 184.4 31.6 183.6C30.8001 183.3 30 183.1 29.2001 182.9C28.5 182.7 27.7001 182.5 27 182.3H26.8C26.7 182.2 26.6 182.2 26.6 182.2C22.8001 181.3 19.2 179.8 15.9 177.8C12.6 175.7 10.3 172.7 9.00005 168.9C8.80005 168.1 8.50005 167.3 8.30005 166.5C8.10005 165.6 8.00005 164.7 8.00005 163.8C8.00005 163.7 8.00005 163.4 8.00005 163.2V160.4C8.10005 159.8 8.20005 159.2 8.30005 158.5C8.50005 156.9 8.90005 155.4 9.50005 153.9C10 152.4 10.7 151 11.6 149.7C14.1 145.6 17.3 142.7 21.1 140.9C25 139.1 29.2001 138.2 33.4 138.2C34.4 138.2 35.4001 138.3 36.4001 138.4C37.5 138.5 38.6001 138.6 39.7001 138.7C42.5 139.2 45.3001 140 47.9001 141C50.7001 142.1 53.2 143.4 55.6 144.8L49.2001 159.1C47.1001 157.6 44.9 156.2 42.6 155C40.3 153.8 37.8 153.3 35.1 153.3H34.2001C32.4001 153.5 30.8001 154.3 29.2001 155.7C27.7001 157 26.9 158.4 26.9 160V160.7C27 160.9 27.1 161.2 27.2001 161.4C27.4001 161.9 27.6 162.4 28 162.9C28.4 163.4 28.8 163.8 29.3 164.2C30.2 164.9 31.4 165.6 33 166.2C34.6 166.7 36.3 167.3 38.1 167.8C39.6 168.2 41 168.6 42.4001 169C43.8001 169.3 45 169.6 45.9001 169.9C50.2001 171.4 53.5 174 55.7001 177.7C57.9001 181.3 59 185.1 59.1 189.1V189.7C59.1 190.2 59.1 190.6 59 191.1V192.4C58.5 196.4 57.2 200.3 55.1 203.9C53 207.5 50.2 210.3 46.6 212.3C45.3 212.9 43.9001 213.5 42.5 213.9C41.1 214.3 39.7001 214.6 38.3 214.9C37.2001 215.1 36 215.3 34.8 215.4C33.7 215.6 32.6 215.6 31.4 215.6H30C25.4 215.4 20.8 214.4 16.3 212.6C11.8 210.7 7.80005 208.1 4.30005 204.9L13.7 190.1ZM355.3 337.2C355.3 336.9 355.4 336.6 355.5 336.3C355.6 336 355.8 335.7 356 335.5C356.2 335.3 356.5 335.1 356.8 334.9C357.1 334.8 357.5 334.7 357.9 334.7C358.4 334.7 358.8 334.8 359.2 335C359.6 335.2 360 335.4 360.3 335.7C360.5 336 360.7 336.3 360.9 336.7C361 337.1 361.1 337.5 361.1 338C361.1 338.9 360.9 339.6 360.6 340.4C360.3 341.1 359.9 341.8 359.3 342.3C359 342.6 358.8 342.8 358.5 343C358.2 343.2 357.9 343.4 357.6 343.5C357.3 343.6 357.1 343.8 356.9 343.9C356.8 344 356.7 344 356.5 344.1L355.1 342.1C355.3 342 355.6 341.9 355.9 341.7C356.2 341.6 356.5 341.4 356.8 341.2C357.1 341 357.3 340.7 357.5 340.4C357.7 340.1 357.8 339.8 357.8 339.4C357.2 339.4 356.6 339.2 356.1 338.8C355.5 338.5 355.3 338 355.3 337.2ZM363.1 337.2C363.1 336.9 363.2 336.6 363.3 336.3C363.4 336 363.6 335.7 363.8 335.5C364 335.3 364.3 335.1 364.6 334.9C364.9 334.8 365.3 334.7 365.7 334.7C366.2 334.7 366.6 334.8 367 335C367.4 335.2 367.8 335.4 368.1 335.7C368.3 336 368.5 336.3 368.7 336.7C368.8 337.1 368.9 337.5 368.9 338C368.9 338.8 368.8 339.6 368.4 340.4C368.1 341.1 367.7 341.8 367.1 342.3C366.8 342.6 366.6 342.8 366.3 343C366 343.2 365.7 343.4 365.4 343.5C365.1 343.6 364.9 343.8 364.7 343.9C364.6 344 364.5 344 364.3 344.1L363 342.1C363.2 342 363.5 341.9 363.8 341.7C364.1 341.6 364.4 341.4 364.7 341.2C365 341 365.2 340.7 365.4 340.4C365.6 340.1 365.7 339.8 365.7 339.4C365.1 339.4 364.5 339.2 364 338.8C363.3 338.5 363.1 338 363.1 337.2ZM98.5 278.5C98.5 278.8 98.4 279.1 98.3 279.4C98.2001 279.7 98 280 97.8 280.2C97.3 280.7 96.6 281 95.9 281C95.5 281 95 280.9 94.6 280.7C94.2 280.5 93.8 280.3 93.5 280C93.2 279.7 93 279.3 92.9 279C92.8 278.6 92.7 278.2 92.7 277.7C92.7 276.8 92.9 276.1 93.2 275.3C93.5 274.6 93.9 273.9 94.5 273.4C94.8 273.1 95 272.9 95.3 272.7C95.6001 272.5 95.9 272.3 96.2 272.2C96.5 272.1 96.7001 271.9 96.9 271.8C97.1 271.7 97.2001 271.7 97.3 271.6L98.6 273.6C98.3 273.7 98 273.8 97.8 274C97.5 274.1 97.2001 274.3 96.9 274.5C96.6 274.7 96.4 275 96.2 275.3C96 275.6 95.9 275.9 95.9 276.3C96.6 276.3 97.1 276.5 97.6 276.9C98.3 277.3 98.5 277.8 98.5 278.5ZM90.7 278.5C90.7 279.1 90.5 279.7 90 280.2C89.8 280.4 89.5 280.6 89.2 280.8C88.9 280.9 88.5 281 88.1 281C87.7 281 87.2001 280.9 86.8 280.7C86.4 280.5 86 280.3 85.7 280C85.4 279.7 85.2 279.3 85.1 279C85 278.6 84.9 278.2 84.9 277.7C84.9 276.8 85.1 276.1 85.4 275.3C85.7001 274.6 86.1 273.9 86.7 273.4C86.9 273.2 87.2 272.9 87.5 272.7C87.8 272.5 88.1 272.3 88.4 272.2C88.7001 272.1 88.9 271.9 89.1 271.8C89.3 271.7 89.4 271.7 89.5 271.6L90.8 273.6C90.6001 273.7 90.3 273.8 90 274C89.7 274.1 89.4 274.3 89.1 274.5C88.8 274.7 88.6 275 88.4 275.3C88.2001 275.6 88.1 275.9 88.1 276.3C88.8 276.3 89.3 276.5 89.8 276.9C90.4 277.3 90.7 277.8 90.7 278.5ZM336 335.4H339.8L351.6 314.8H347.8L336 335.4ZM335.9 336.9C334.7 336.9 333.7 337.9 333.7 339.1C333.7 340.3 334.6 341.3 335.9 341.3C337.1 341.3 338.1 340.4 338.1 339.1C338.1 337.8 337.1 336.9 335.9 336.9ZM309.5 331.4L310.6 329.5C315 323.4 317.9 325.1 316.6 327.4L314.8 330.5C313.7 332.4 310.3 333.8 309.5 331.4ZM334.6 334.3C334.4 333.7 333.7 333.1 333.2 333L332.9 333.3C331.6 334.9 330 336.2 328.4 337.4C329.6 333.8 329.3 328.3 331.7 323.4L328.9 321.9C327.3 324 323.9 329 320.5 333L320.2 333.3C317.5 336.5 314.8 339 313.2 339C312.4 339 311.6 338.2 311.6 336.5V334.9C314.3 335.2 317.1 333.5 318.8 330.4L319.8 328.7C323.3 322.7 317.6 320.7 313.7 324.2L319.1 314.9H315.3L304.5 333.6C304.3 333.4 304.1 333.3 303.8 333.1L303.5 333.4C300.8 336.6 297.3 339.1 294.6 339.1C292.3 339.1 290.9 337.6 292.6 334.6L296.5 327.8C298.7 324.1 302.5 324.7 300.3 328.6L299.8 329.5H302.9L303.4 328.6C305.4 325.1 303.5 322.5 300.4 322.5C297.3 322.5 294.9 324.1 293.3 326.9L289.6 333.3C289.5 333.3 289.4 333.2 289.4 333.2L289.1 333.5C286.4 336.7 283.7 339.2 282.1 339.2C281.3 339.2 280.8 338.6 281.7 337.1L289.8 323H286L279.3 334.7C276.4 337.3 274.2 338.8 273.5 338.4C272.6 338 273.5 336.6 274 335.8L281.4 322.9H277.6L270.3 335.6C269.5 336.3 267.9 337 267.1 337.5C268.3 333.9 268 328.4 270.4 323.5L267.6 322C266 324.1 257.3 335.7 253.9 339.7C254.2 340.2 254.8 340.6 255.3 341C257.4 338.5 264.6 329.3 266 327.5C264.5 331.4 265.3 338.5 261.7 338.5C260.4 338.5 259.9 337.1 259.9 337.1L257.5 338.3C257.5 338.3 258.2 341.3 261.6 341.3C262 341.3 262.3 341.3 262.7 341.2H262.8C264.7 340.9 267.4 340.1 269.2 338.8C269.2 340.3 270.1 341.3 271.7 341.3C273.8 341.3 276.1 339.4 277.9 337.7C277.5 339.7 278.7 341.3 281.1 341.3C283.4 341.3 286.1 339.4 288.5 336.9C288.5 339.4 290.5 341.3 293.6 341.3C296.7 341.3 299.7 339.6 302.3 337.3L300.2 341H304L308.3 333.5V336.5C308.3 339.7 308.9 341.4 312 341.4C315.1 341.4 318.7 338.1 321.8 334.4C323.9 331.9 325.8 329.3 327.2 327.5C325.7 331.4 326.5 338.5 322.9 338.5C321.6 338.5 321.1 337.1 321.1 337.1L318.7 338.3C318.7 338.3 319.4 341.3 322.8 341.3C323.2 341.3 323.5 341.3 323.9 341.2H324C328 340.7 331.8 337.6 334.6 334.3ZM220 333.2H219.8C218.6 333.2 217.6 334.2 217.6 335.5C217.6 336 217.7 336.4 218 336.8V336.9C216.2 339.9 211.9 339.4 214.1 335.4L217 330.4L218.8 327.3C221.5 322.8 225.1 324.6 222.8 328.5L220 333.2ZM194.6 347.4C193.8 348.8 192.5 348.6 192.5 347.6C192.5 346.6 193.4 345.5 196.3 344.4L194.6 347.4ZM165.8 333.6C163.5 337.2 161.3 338.9 159.7 338.9C158.9 338.9 158.4 338.3 159.3 336.8L164.6 327.6C166.6 324.1 170.7 325 168.8 328.4L165.8 333.6ZM153.8 318.9C154.9 317 156.2 316.1 157.2 316.1C158.6 316.1 159.3 317 159.3 318.4C159.3 321.9 154.9 329.2 149.1 328.3H148.3L153.8 318.9ZM246.6 333L246.3 333.3C243.6 336.5 240.9 339 239.3 339C238.5 339 238 338.4 238.9 336.9L244.3 327.3C245.9 324.4 244.4 322.4 242.3 322.4C240.7 322.4 239 323.3 237.1 325.2L238.5 322.7H234.7L228.6 333.2C228.4 333.1 228.3 333 228.1 332.9L227.8 333.2C226.1 335.1 224 336 222.1 336L225.7 329.9C228 325.9 225.9 322.2 222.3 322.2C219.4 322.2 217.1 323.4 215 327.1L213.1 330.3L211.5 333.1C211.4 333 211.3 333 211.2 332.9L210.9 333.2C207.8 336.8 205.1 339.1 202.1 340.4L212.5 322.7H208.7L202 334.3C199.1 337 196.8 338.5 196.1 338.2C195.2 337.8 196.1 336.4 196.6 335.6L204 322.7H200.2L194.2 333.1C194.1 333 194 333 193.9 332.9L193.6 333.2C190.9 336.4 188.2 338.9 186.6 338.9C185.8 338.9 185.3 338.3 186.2 336.8L191.6 327.2C193.2 324.3 191.7 322.3 189.6 322.3C188 322.3 186.3 323.2 184.4 325.1L185.8 322.6H182L176 333C175.9 332.9 175.8 332.9 175.6 332.8L175.3 333.1C172.6 336.3 169.9 338.8 168.3 338.8C167.5 338.8 167 338.2 167.9 336.7L174 326H171.9C172 324.4 170.4 322.2 167.9 322.2C165.9 322.2 163 323.8 161.4 326.6L157.5 333.3C157.2 333.1 156.9 332.9 156.7 332.8L156.4 333.1C153.7 336.3 151.6 338.8 147.8 338.8C145.2 338.8 143.7 336.2 145.9 332.4L147 330.5C147.7 330.6 148.4 330.7 149.1 330.7C153.1 330.7 157.7 328.6 160.7 323.4C161.8 321.5 162.2 319.8 162.2 318.3C162.2 314.9 160 312.7 157.2 312.7C155.1 312.7 152.7 314.2 151 317.1L145.1 327.2C142.9 326 141.7 323.9 141.7 321.8C141.7 320.1 142.5 318.3 144.1 317L142.9 314.8C140.2 316.7 139 319.3 139 321.8C139 324.8 140.7 327.7 143.8 329.3L142.7 331.3C140 335.9 141.6 341 146.9 341C151.1 341 153 339.1 155.6 336.6C154.8 339 156 341 158.6 341C160.1 341 162 340 163.8 338.5C164 340 165.1 341 167.1 341C168.9 341 170.9 339.9 172.8 338.2L171.4 340.6H175.2L181 330.5C186.8 323.3 189.4 324.2 187.7 327L182.8 335.5C181.2 338.3 182.3 340.9 185.4 340.9C187.4 340.9 189.7 339.5 191.8 337.5C191.3 339.6 192.3 340.9 194.2 340.9C196 340.9 198.1 339.4 199.8 337.9L197.7 341.5C192.6 343 189.4 345.1 189.4 348C189.4 351.6 195 352.4 197.7 347.7L200.6 342.7C203.8 341.7 206.9 339.7 210.1 336.5C209.6 341.8 216.6 343 220.8 337.6H221.6C223 337.6 224.8 337.1 226.5 336.1L224 340.5H227.8L233.6 330.4C239.4 323.2 242 324.1 240.3 326.9L235.4 335.4C233.8 338.2 234.9 340.8 238 340.8C241.1 340.8 244.7 337.5 247.8 333.8C247.7 333.8 247.1 333.2 246.6 333ZM365.2 297.4C362.9 301.1 360.6 302.9 359 302.9C358.2 302.9 357.7 302.3 358.6 300.8L363.9 291.6C365.9 288.1 370 289 368.1 292.4L365.2 297.4ZM329 297.6C326.7 301.2 324.5 302.9 322.9 302.9C322.1 302.9 321.6 302.3 322.5 300.8L327.8 291.6C329.8 288.1 333.9 289 332 292.4L329 297.6ZM289.1 311.4C288.3 312.8 287 312.6 287 311.6C287 310.6 287.9 309.5 290.8 308.4L289.1 311.4ZM297.1 282.9C298.2 281 299.5 280.1 300.5 280.1C306.5 280.1 302 294.5 292.4 292.3H291.6L297.1 282.9ZM374.8 297L374.5 297.3C371.8 300.5 369.1 303 367.5 303C366.7 303 366.2 302.4 367.1 300.9L379.9 278.8H376.1L370.5 288.4C369.8 287.3 368.6 286.4 367 286.4C365 286.4 362.1 288 360.5 290.8L356.8 297.2C356.7 297.2 356.6 297.1 356.6 297.1L356.3 297.4C353.6 300.6 351.3 303.1 349.6 303.1C348.8 303.1 348.3 302.5 349.2 301L354.7 291.4C356.3 288.5 354.8 286.5 352.7 286.5C351.1 286.5 349.4 287.4 347.5 289.3L348.9 286.8H345.1L339.1 297.2C339 297.1 338.9 297.1 338.7 297L338.4 297.3C335.7 300.5 333 303 331.4 303C330.6 303 330.1 302.4 331 300.9L337.1 290.2H335C335.1 288.6 333.5 286.4 331 286.4C329 286.4 326.1 288 324.5 290.8L320.8 297.1L320.6 297.3C317.9 300.5 314.8 303 313.2 303C312.4 303 311.9 302.4 312.8 300.9L316.6 294.3C317.9 292 317.3 290.7 316.1 289.2L314 286.7C313.5 286 313.5 285.2 314.2 284.5L312.2 282.4C310.1 284.3 309.9 286.5 311.2 288.2L311.5 288.6C309.8 291 307.6 294.2 305.1 297.1C305.2 297.2 305.3 297.3 305.4 297.4C302.3 301 299.6 303.3 296.7 304.6L301.5 296.4H297.7L297.3 297.1C295.3 300.6 293 303.1 290.1 303.1C287.5 303.1 287.1 300.5 289.3 296.7L290.4 294.8C291.1 294.9 291.8 295 292.5 295C305.9 295 312.4 277 300.6 277C298.5 277 296.1 278.5 294.4 281.4L288.5 291.5C286.3 290.3 285.1 288.2 285.1 286.1C285.1 284.4 285.9 282.6 287.5 281.3L286.3 279.1C283.6 281 282.4 283.6 282.4 286.1C282.4 289.1 284.1 292 287.2 293.6L286.1 295.6C283.4 300.2 283.9 305.3 289.3 305.3C290.9 305.3 292.2 304.8 293.4 304.1L292.4 305.8C287.3 307.4 284.1 309.4 284.1 312.3C284.1 315.9 289.7 316.7 292.4 312L295.3 307C299.2 305.8 303.1 303.1 307.2 298.3C307.1 298.2 307.1 298.1 307 297.9C308.7 295.9 310.1 294 313 290.2L313.5 290.8C314 291.4 314.2 292.2 313.7 292.9L309.7 299.8C308.1 302.6 309.2 305.2 312.3 305.2C314.2 305.2 316.6 304 318.7 302.2C318.7 303.9 319.8 305.2 322 305.2C323.5 305.2 325.4 304.2 327.2 302.7C327.4 304.2 328.5 305.2 330.5 305.2C332.3 305.2 334.3 304.1 336.2 302.4L334.8 304.8H338.6L344.4 294.7C350.2 287.5 352.8 288.4 351.1 291.2L346.2 299.7C344.6 302.5 345.7 305.1 348.8 305.1C350.8 305.1 352.6 303.7 354.8 301.8C354.6 303.7 355.8 305.1 358.1 305.1C359.6 305.1 361.5 304.1 363.3 302.6C363.5 304.1 364.6 305.1 366.6 305.1C369.7 305.1 373.3 301.8 376.4 298.1C375.9 297.8 375.3 297.2 374.8 297ZM262.5 291.7C264.7 288 268.5 288.6 266.3 292.5L265.8 293.4C264 296.5 261.5 296.4 260.1 295.9L262.5 291.7ZM259.5 305.3C263.8 305.3 268 302 271.2 298.3C270.9 297.8 270.3 297.2 269.8 297L269.5 297.3C266.8 300.5 263.3 303 260.6 303C258.3 303 256.9 301.5 258.6 298.5L259 297.8C261.4 298.8 266 298.3 268.8 293.4L269.3 292.5C271.3 289 269.4 286.4 266.3 286.4C263.3 286.4 260.8 288 259.2 290.8L255.5 297.1C255.5 297.1 255.4 297.1 255.4 297L255.1 297.3C252.4 300.5 249.7 303 248.1 303C247.3 303 246.8 302.4 247.7 300.9L253.1 291.3C254.7 288.4 253.2 286.4 251.1 286.4C249.5 286.4 247.7 287.3 245.8 289.3L251.8 278.8H248L237.3 297.3C237.2 297.2 237 297.1 236.9 297L236.6 297.3C233.9 300.5 231.2 303 229.6 303C228.8 303 228.3 302.4 229.2 300.9L237.3 286.8H240.4L241.5 285H238.4L242 278.8H238.2L234.6 285H231.2L230.1 286.8H233.5L225.9 300C224.3 302.8 225.4 305.4 228.5 305.4C230.4 305.4 232.4 304.2 234.4 302.4L232.9 305H236.7L242.4 295C248.2 287.7 250.8 288.6 249.2 291.4L244.3 299.9C242.7 302.7 243.8 305.3 246.9 305.3C249.2 305.3 251.7 303.5 254.2 301.1C254.4 303.5 256.4 305.3 259.5 305.3ZM132 291.7C134.2 288 138 288.6 135.8 292.5L135.3 293.4C133.5 296.5 131 296.4 129.6 295.9L132 291.7ZM155.1 300.9L160.4 291.7C162.4 288.2 166.5 289.1 164.6 292.5L161.7 297.7C159.4 301.3 157.2 303 155.6 303C154.7 302.9 154.2 302.4 155.1 300.9ZM209.1 291.7C211.3 288 215.1 288.6 212.9 292.5L212.4 293.4C210.6 296.5 208.2 296.4 206.7 295.9L209.1 291.7ZM151.3 301.2C150.7 303.4 151.9 305.3 154.4 305.3C155.9 305.3 157.8 304.3 159.6 302.8C159.8 304.3 160.9 305.3 162.9 305.3C164.9 305.3 167.1 303.9 169.3 302C168.9 304 169.8 305.3 171.7 305.3C173.8 305.3 176.1 303.4 177.9 301.7C177.5 303.7 178.7 305.3 181.1 305.3C184.2 305.3 187.8 302 190.9 298.3C190.9 298.3 190.8 298.2 190.8 298.1C192.9 295.7 194.7 293.1 196 291.3C194.5 295.2 195.3 302.3 191.7 302.3C190.4 302.3 189.9 300.9 189.9 300.9L187.5 302.1C187.5 302.1 188.2 305.2 191.6 305.2C192 305.2 192.3 305.2 192.7 305.1H192.8C195.6 304.7 198.3 303 200.7 300.9C200.8 303.4 202.7 305.2 205.8 305.2C210.1 305.2 214.3 301.9 217.5 298.2C217.2 297.7 216.6 297.1 216.1 296.9L215.8 297.2C213.1 300.4 209.6 302.9 206.9 302.9C204.6 302.9 203.2 301.4 204.9 298.4L205.3 297.7C207.7 298.7 212.3 298.2 215.1 293.3L215.6 292.4C217.6 288.9 215.7 286.3 212.6 286.3C209.5 286.3 207.1 287.9 205.5 290.7L201.8 297H201.7L201.4 297.3C200.1 298.9 198.5 300.2 196.9 301.4C198.1 297.8 197.8 292.3 200.2 287.4L197.4 285.9C195.8 288 192.4 293 189 297L189.1 297.1L189 297.3C186.3 300.5 183.6 303 182 303C181.2 303 180.7 302.4 181.6 300.9L189.7 286.8H185.9L179.2 298.5C176.3 301.1 174.1 302.6 173.4 302.2C172.5 301.8 173.4 300.4 173.9 299.6L181.3 286.7H177.5L171.5 297.1C171.4 297 171.3 297 171.2 296.9L170.9 297.2C168.2 300.4 165.5 302.9 163.9 302.9C163.1 302.9 162.6 302.3 163.5 300.8L169.6 290.1H167.5C167.6 288.5 166 286.3 163.5 286.3C161.5 286.3 158.6 287.9 157 290.7L153.2 297.3C153 297.2 152.8 297 152.6 296.9L152.3 297.2C149.6 300.4 146.4 302.9 143.8 302.9C141.5 302.9 140.1 301.4 141.8 298.4L145.7 291.6C147.9 287.9 151.7 288.5 149.5 292.4L149 293.3H152.1L152.6 292.4C154.6 288.9 152.7 286.3 149.6 286.3C146.5 286.3 144.5 287.9 142.9 290.7L139.1 297.1C139 297 138.9 297 138.8 296.9L138.5 297.2C135.8 300.4 132.6 302.9 129.9 302.9C127.6 302.9 126.2 301.4 127.9 298.4L128.3 297.7C130.7 298.7 135.3 298.2 138.1 293.3L138.6 292.4C140.6 288.9 138.7 286.3 135.6 286.3C132.5 286.3 130.1 287.9 128.5 290.7L124.5 297.5C122.1 301.5 124.2 305.2 128.6 305.2C131.9 305.2 134.6 303.2 137.4 300.6C137.3 303.2 139.3 305.2 142.5 305.2C145.9 305.3 148.6 303.5 151.3 301.2ZM114.4 287.2L117.5 282C120.3 277.2 123.8 280 121.9 283.6C120.4 286.3 118.3 287.2 114.4 287.2ZM110.3 304.5C108 304.5 106.3 304 104.9 303.2C105.6 302.4 106.2 301.5 106.8 300.5L113.2 289.5L114.2 289.6C123 291.4 119.5 304.5 110.3 304.5ZM119.7 289C127.3 286.4 127.9 276.9 120.4 276.9C118.3 276.9 115.9 278.4 114.2 281.3L104 298.9C103.6 299.7 103.1 300.4 102.5 301C99.9 297.4 100.6 292 104.3 289.7L102.8 287.8C94.9 292.8 97.2001 307.4 110.4 307.4C121.7 307.4 126.9 293.8 119.7 289Z" fill="white"/>
</g>
<defs>
<filter id="filter0_d_18711_594" x="0" y="0" width="466" height="360" filterUnits="userSpaceOnUse" color-interpolation-filters="sRGB">
<feFlood flood-opacity="0" result="BackgroundImageFix"/>
<feColorMatrix in="SourceAlpha" type="matrix" values="0 0 0 0 0 0 0 0 0 0 0 0 0 0 0 0 0 0 127 0" result="hardAlpha"/>
<feOffset dy="4"/>
<feGaussianBlur stdDeviation="2"/>
<feComposite in2="hardAlpha" operator="out"/>
<feColorMatrix type="matrix" values="0 0 0 0 0 0 0 0 0 0 0 0 0 0 0 0 0 0 0.25 0"/>
<feBlend mode="normal" in2="BackgroundImageFix" result="effect1_dropShadow_18711_594"/>
<feBlend mode="normal" in="SourceGraphic" in2="effect1_dropShadow_18711_594" result="shape"/>
</filter>
</defs>
</svg>
